<svg width="31" height="43" viewBox="0 0 31 43" fill="none" xmlns="http://www.w3.org/2000/svg">
<path d="M0 32H31V0H0V32ZM1.82353 30.1714V24.4835H29.1765V30.1714H1.82353ZM15.9111 22.628H5.05947L10.4853 15.6574L15.9111 22.628ZM15.6316 19.297L18.7027 16.3418L25.5094 22.6549H18.2453L15.6316 19.297ZM29.1765 8.82962C28.5944 9.03707 27.9834 9.14286 27.3529 9.14286C24.3365 9.14286 21.8824 6.68197 21.8824 3.65714C21.8824 3.02528 21.9878 2.41262 22.1944 1.82857H29.1765V8.82962ZM1.82353 1.82857H20.2882C20.1359 2.42094 20.0588 3.03232 20.0588 3.65714C20.0588 7.69024 23.331 10.9714 27.3529 10.9714C27.9763 10.9714 28.5859 10.8941 29.1765 10.7412V22.6549H28.1948L18.6797 13.8297L14.5037 17.848L10.4853 12.6855L2.72536 22.6549H1.82353V1.82857Z" fill="white"/>
<path d="M8.49 35V42H9.34V35H8.49ZM11.58 38.5C11.58 38.9067 11.48 39.25 11.28 39.53C11.08 39.8033 10.8033 40.01 10.45 40.15C10.0967 40.2833 9.69 40.35 9.23 40.35H8.6C8.14 40.35 7.73333 40.2833 7.38 40.15C7.02667 40.01 6.75 39.8033 6.55 39.53C6.35 39.25 6.25 38.9067 6.25 38.5C6.25 38.0867 6.35 37.7433 6.55 37.47C6.75 37.1967 7.02667 36.9933 7.38 36.86C7.73333 36.72 8.14 36.65 8.6 36.65H9.23C9.69 36.65 10.0967 36.72 10.45 36.86C10.8033 36.9933 11.08 37.1967 11.28 37.47C11.48 37.7433 11.58 38.0867 11.58 38.5ZM12.43 38.5C12.43 37.9333 12.29 37.45 12.01 37.05C11.7367 36.65 11.3567 36.3433 10.87 36.13C10.39 35.91 9.84333 35.8 9.23 35.8H8.6C7.98667 35.8 7.43667 35.91 6.95 36.13C6.47 36.3433 6.09 36.65 5.81 37.05C5.53667 37.45 5.4 37.9333 5.4 38.5C5.4 39.06 5.53667 39.5433 5.81 39.95C6.09 40.35 6.47 40.66 6.95 40.88C7.43667 41.0933 7.98667 41.2 8.6 41.2H9.23C9.84333 41.2 10.39 41.0933 10.87 40.88C11.3567 40.66 11.7367 40.35 12.01 39.95C12.29 39.5433 12.43 39.06 12.43 38.5ZM13.182 39.7C13.182 40.16 13.2854 40.5733 13.492 40.94C13.7054 41.3 13.992 41.5833 14.352 41.79C14.712 41.9967 15.1154 42.1 15.562 42.1C16.0154 42.1 16.4187 41.9967 16.772 41.79C17.132 41.5833 17.4154 41.3 17.622 40.94C17.8354 40.5733 17.942 40.16 17.942 39.7C17.942 39.2333 17.8354 38.82 17.622 38.46C17.4154 38.1 17.132 37.8167 16.772 37.61C16.4187 37.4033 16.0154 37.3 15.562 37.3C15.1154 37.3 14.712 37.4033 14.352 37.61C13.992 37.8167 13.7054 38.1 13.492 38.46C13.2854 38.82 13.182 39.2333 13.182 39.7ZM13.992 39.7C13.992 39.38 14.0587 39.0967 14.192 38.85C14.332 38.5967 14.5187 38.4 14.752 38.26C14.992 38.12 15.262 38.05 15.562 38.05C15.862 38.05 16.1287 38.12 16.362 38.26C16.602 38.4 16.7887 38.5967 16.922 38.85C17.062 39.0967 17.132 39.38 17.132 39.7C17.132 40.02 17.062 40.3033 16.922 40.55C16.7887 40.7967 16.602 40.9933 16.362 41.14C16.1287 41.28 15.862 41.35 15.562 41.35C15.262 41.35 14.992 41.28 14.752 41.14C14.5187 40.9933 14.332 40.7967 14.192 40.55C14.0587 40.3033 13.992 40.02 13.992 39.7ZM18.341 37.4V38.15H21.041V37.4H18.341ZM19.291 37.6V42H20.091V37.6H19.291ZM21.2973 39.7C21.2973 40.16 21.4006 40.5733 21.6073 40.94C21.8206 41.3 22.1073 41.5833 22.4673 41.79C22.8273 41.9967 23.2306 42.1 23.6773 42.1C24.1306 42.1 24.5339 41.9967 24.8873 41.79C25.2473 41.5833 25.5306 41.3 25.7373 40.94C25.9506 40.5733 26.0573 40.16 26.0573 39.7C26.0573 39.2333 25.9506 38.82 25.7373 38.46C25.5306 38.1 25.2473 37.8167 24.8873 37.61C24.5339 37.4033 24.1306 37.3 23.6773 37.3C23.2306 37.3 22.8273 37.4033 22.4673 37.61C22.1073 37.8167 21.8206 38.1 21.6073 38.46C21.4006 38.82 21.2973 39.2333 21.2973 39.7ZM22.1073 39.7C22.1073 39.38 22.1739 39.0967 22.3073 38.85C22.4473 38.5967 22.6339 38.4 22.8673 38.26C23.1073 38.12 23.3773 38.05 23.6773 38.05C23.9773 38.05 24.2439 38.12 24.4773 38.26C24.7173 38.4 24.9039 38.5967 25.0373 38.85C25.1773 39.0967 25.2473 39.38 25.2473 39.7C25.2473 40.02 25.1773 40.3033 25.0373 40.55C24.9039 40.7967 24.7173 40.9933 24.4773 41.14C24.2439 41.28 23.9773 41.35 23.6773 41.35C23.3773 41.35 23.1073 41.28 22.8673 41.14C22.6339 40.9933 22.4473 40.7967 22.3073 40.55C22.1739 40.3033 22.1073 40.02 22.1073 39.7Z" fill="white"/>
</svg>
