<svg width="57" height="85" viewBox="0 0 57 85" fill="none" xmlns="http://www.w3.org/2000/svg">
<path d="M2.45663e-06 56.8994C3.8134e-06 41.3798 13.0668 14.7485 28.05 5.17719e-06C42.7719 13.1776 56.1 41.3798 56.1 56.8994C56.1 72.4189 43.5416 85 28.05 85C12.5584 85 1.09987e-06 72.4189 2.45663e-06 56.8994Z" fill="url(#paint0_linear_118_182)"/>
<path d="M11.475 68.5611C11.475 59.4822 19.0973 43.9028 27.8375 35.275C36.4253 42.9839 44.2 59.4822 44.2 68.5611C44.2 77.6401 36.8743 85 27.8375 85C18.8008 85 11.475 77.6401 11.475 68.5611Z" fill="url(#paint1_linear_118_182)"/>
<circle cx="28.05" cy="74.7999" r="7.225" fill="white"/>
<defs>
<linearGradient id="paint0_linear_118_182" x1="28.05" y1="85" x2="28.05" y2="5.17719e-06" gradientUnits="userSpaceOnUse">
<stop stop-color="#36BAFE"/>
<stop offset="1" stop-color="white" stop-opacity="0"/>
</linearGradient>
<linearGradient id="paint1_linear_118_182" x1="27.8375" y1="85" x2="27.8375" y2="35.275" gradientUnits="userSpaceOnUse">
<stop stop-color="#36BAFE"/>
<stop offset="1" stop-color="white" stop-opacity="0"/>
</linearGradient>
</defs>
</svg>
