<svg width="86" height="88" viewBox="0 0 86 88" fill="none" xmlns="http://www.w3.org/2000/svg">
<rect x="2.5" y="43.8647" width="16.7654" height="34.5273" rx="7.5" stroke="#36BAFE" stroke-width="5"/>
<path d="M7.4321 77.7294V84.4486C7.4321 85.5532 8.32753 86.4486 9.4321 86.4486H14.4568C15.5614 86.4486 16.4568 85.5532 16.4568 84.4486V77.7294" stroke="#36BAFE" stroke-width="3"/>
<path d="M70.6049 78.892V84.4487C70.6049 85.5532 71.5004 86.4487 72.605 86.4487H77.6296C78.7342 86.4487 79.6296 85.5532 79.6296 84.4487V78.892" stroke="#36BAFE" stroke-width="3"/>
<rect x="66.7346" y="43.8647" width="16.7654" height="34.5273" rx="7.5" stroke="#36BAFE" stroke-width="5"/>
<path d="M74.8518 41.3647V23C74.8518 11.9543 65.8976 3 54.8519 3H31.1481C20.1025 3 11.1481 11.9543 11.1481 23V41.3647" stroke="#36BAFE" stroke-width="5"/>
<line x1="21.7654" y1="58.5471" x2="64.2346" y2="58.5471" stroke="#36BAFE" stroke-width="4"/>
<line x1="19.642" y1="74.5669" x2="66.8889" y2="74.5669" stroke="#36BAFE" stroke-width="4"/>
</svg>
