<svg width="108" height="168" viewBox="0 0 108 168" fill="none" xmlns="http://www.w3.org/2000/svg">
<rect x="66" width="6" height="80" rx="3" fill="#36BAFE"/>
<rect x="106" y="109" width="6" height="60" transform="rotate(90 106 109)" fill="#36BAFE"/>
<path d="M93 94V90C93 84.4772 88.5228 80 83 80H69C63.4772 80 59 84.4772 59 90V94" stroke="#36BAFE" stroke-width="5"/>
<path d="M105 115V101C105 98.2386 102.761 96 100 96H53C50.2386 96 48 98.2386 48 101V115" stroke="#36BAFE" stroke-width="5"/>
<rect x="81" width="6" height="27" rx="3" fill="#36BAFE"/>
<rect x="50" y="38" width="6" height="38" rx="3" transform="rotate(90 50 38)" fill="#36BAFE"/>
<rect x="50" y="52" width="6" height="50" rx="3" transform="rotate(90 50 52)" fill="#36BAFE"/>
<rect x="51" y="80" width="6" height="44" rx="3" transform="rotate(90 51 80)" fill="#36BAFE"/>
<rect x="50" y="66" width="6" height="33" rx="3" transform="rotate(90 50 66)" fill="#36BAFE"/>
<rect x="81" y="48" width="6" height="32" rx="3" fill="#36BAFE"/>
<path d="M78.1571 135.337C78.8353 133.671 80.8326 132.995 82.3833 133.905V133.905C83.6613 134.655 84.1845 136.237 83.606 137.602L78.4148 149.843C77.8075 151.275 77.018 152.623 76.0658 153.853L67.779 164.56C66.8615 165.746 65.2061 166.066 63.9133 165.307V165.307C62.3667 164.399 61.9664 162.34 63.06 160.919L71.9078 149.42C72.6326 148.477 73.2272 147.442 73.6755 146.341L78.1571 135.337Z" fill="#36BAFE"/>
<path d="M54.157 135.158C54.8352 133.492 56.8326 132.816 58.3833 133.726V133.726C59.6613 134.476 60.1845 136.058 59.6059 137.422L54.4148 149.664C53.8074 151.096 53.0179 152.444 52.0658 153.674L43.779 164.381C42.8614 165.567 41.2061 165.886 39.9133 165.128V165.128C38.3667 164.22 37.9664 162.161 39.06 160.74L47.9078 149.24C48.6326 148.298 49.2272 147.263 49.6755 146.162L54.157 135.158Z" fill="#36BAFE"/>
<rect x="81" y="36" width="6" height="6" rx="3" fill="#36BAFE"/>
<path d="M82.9681 164.5H12.3284L35.9142 140.914L36.193 140.635L36.3452 140.272L47.3315 114H105.438L98.1513 143.149L82.9681 164.5Z" stroke="#36BAFE" stroke-width="4"/>
</svg>
