<svg width="81" height="88" viewBox="0 0 81 88" fill="none" xmlns="http://www.w3.org/2000/svg">
<path d="M59.0851 22.8324C59.0851 34.6425 49.7085 44.1649 38.2048 44.1649C26.7011 44.1649 17.3245 34.6425 17.3245 22.8324C17.3245 11.0224 26.7011 1.5 38.2048 1.5C49.7085 1.5 59.0851 11.0224 59.0851 22.8324Z" stroke="#36BAFE" stroke-width="3"/>
<circle cx="37.7526" cy="22.3804" r="14.5505" stroke="#36BAFE" stroke-width="3"/>
<path d="M37.68 29.224V21.34L38.04 20.764V13.798H39.084V20.998L38.742 21.754V29.224H37.68ZM41.604 17.308C41.16 17.08 40.674 16.882 40.146 16.714C39.618 16.546 39.102 16.462 38.598 16.462C37.902 16.462 37.344 16.624 36.924 16.948C36.516 17.272 36.312 17.704 36.312 18.244C36.312 18.652 36.444 19 36.708 19.288C36.972 19.564 37.32 19.804 37.752 20.008C38.184 20.212 38.634 20.404 39.102 20.584C39.51 20.74 39.912 20.914 40.308 21.106C40.704 21.298 41.058 21.538 41.37 21.826C41.694 22.114 41.946 22.468 42.126 22.888C42.318 23.308 42.414 23.83 42.414 24.454C42.414 25.138 42.24 25.762 41.892 26.326C41.556 26.89 41.07 27.334 40.434 27.658C39.798 27.982 39.042 28.144 38.166 28.144C37.59 28.144 37.038 28.078 36.51 27.946C35.994 27.814 35.514 27.646 35.07 27.442C34.626 27.226 34.23 27.004 33.882 26.776L34.656 25.408C34.944 25.612 35.274 25.81 35.646 26.002C36.018 26.182 36.408 26.332 36.816 26.452C37.224 26.56 37.62 26.614 38.004 26.614C38.412 26.614 38.814 26.542 39.21 26.398C39.618 26.242 39.954 26.008 40.218 25.696C40.482 25.384 40.614 24.97 40.614 24.454C40.614 24.01 40.494 23.644 40.254 23.356C40.026 23.056 39.72 22.804 39.336 22.6C38.952 22.384 38.544 22.192 38.112 22.024C37.704 21.868 37.29 21.7 36.87 21.52C36.45 21.328 36.06 21.1 35.7 20.836C35.34 20.56 35.052 20.224 34.836 19.828C34.62 19.432 34.512 18.952 34.512 18.388C34.512 17.704 34.674 17.11 34.998 16.606C35.334 16.09 35.79 15.688 36.366 15.4C36.942 15.1 37.602 14.938 38.346 14.914C39.186 14.914 39.924 15.016 40.56 15.22C41.208 15.424 41.778 15.676 42.27 15.976L41.604 17.308Z" fill="#36BAFE"/>
<line x1="5.56915" y1="32.5532" x2="5.56915" y2="39.3351" stroke="#36BAFE" stroke-width="3"/>
<line x1="15.516" y1="41.5957" x2="15.516" y2="60.1329" stroke="#36BAFE" stroke-width="3"/>
<line x1="21.25" y1="61.6331" x2="14.016" y2="61.6331" stroke="#36BAFE" stroke-width="3"/>
<line x1="5.56915" y1="41.5957" x2="5.56915" y2="61.9414" stroke="#36BAFE" stroke-width="3"/>
<line y1="61.3457" x2="6.78191" y2="61.3457" stroke="#36BAFE" stroke-width="3"/>
<path d="M1.35638 61.9415L10.625 74.6011L19.8936 61.9415" stroke="#36BAFE" stroke-width="3"/>
<line x1="44.9042" y1="51.9946" x2="44.9042" y2="70.5319" stroke="#36BAFE" stroke-width="3"/>
<line x1="50.6383" y1="72.032" x2="43.4043" y2="72.032" stroke="#36BAFE" stroke-width="3"/>
<line x1="34.9575" y1="51.9946" x2="34.9575" y2="72.3404" stroke="#36BAFE" stroke-width="3"/>
<line x1="29.3883" y1="71.7446" x2="36.1702" y2="71.7446" stroke="#36BAFE" stroke-width="3"/>
<path d="M30.7447 72.3404L40.0133 85L49.2819 72.3404" stroke="#36BAFE" stroke-width="3"/>
<line x1="74.2925" y1="32.5532" x2="74.2925" y2="39.3351" stroke="#36BAFE" stroke-width="3"/>
<line x1="74.2925" y1="41.5957" x2="74.2925" y2="60.1329" stroke="#36BAFE" stroke-width="3"/>
<line x1="80.0266" y1="61.6331" x2="72.7926" y2="61.6331" stroke="#36BAFE" stroke-width="3"/>
<line x1="64.3458" y1="41.5957" x2="64.3458" y2="61.9414" stroke="#36BAFE" stroke-width="3"/>
<line x1="58.7766" y1="61.3457" x2="65.5585" y2="61.3457" stroke="#36BAFE" stroke-width="3"/>
<path d="M60.133 61.9415L69.4016 74.6011L78.6702 61.9415" stroke="#36BAFE" stroke-width="3"/>
</svg>
