<svg width="714" height="442" viewBox="0 0 714 442" fill="none" xmlns="http://www.w3.org/2000/svg">
<path d="M476.615 286.271C480.101 289.142 483.958 291.492 487.965 293.188C491.973 294.884 496.053 295.893 499.973 296.156C503.893 296.419 507.575 295.932 510.81 294.722C514.045 293.513 516.769 291.604 518.826 289.106C520.884 286.607 522.235 283.568 522.802 280.161C523.369 276.755 523.141 273.047 522.132 269.251C521.122 265.454 519.35 261.643 516.917 258.035C514.484 254.426 511.438 251.092 507.952 248.221" stroke="#37A6EA" stroke-width="12"/>
<path d="M116.578 30.5103C118.483 21.727 129.012 18.0787 135.944 23.7999L210.934 85.6971C215.527 89.489 216.644 96.0766 213.557 101.171L126.753 244.412C123.169 250.326 115.341 251.995 109.657 248.057L81.2375 228.367C77.2464 225.602 75.3149 220.704 76.3444 215.959L116.578 30.5103Z" stroke="#37A6EA" stroke-width="12"/>
<path d="M594.961 32.6104C592.962 23.8199 582.346 20.2903 575.481 26.1339L499.904 90.4691C495.356 94.3412 494.348 100.969 497.54 106.019L585.665 245.427C589.356 251.268 597.205 252.792 602.814 248.758L631.852 227.877C635.768 225.061 637.617 220.175 636.548 215.473L594.961 32.6104Z" stroke="#37A6EA" stroke-width="12"/>
<path d="M206.587 114.716L322.559 105.766L344.02 113.986" stroke="#37A6EA" stroke-width="12"/>
<line x1="129.547" y1="239.768" x2="156.275" y2="258.486" stroke="#37A6EA" stroke-width="12"/>
<line x1="574.969" y1="221.554" x2="520.083" y2="267.967" stroke="#37A6EA" stroke-width="12"/>
<line x1="387.599" y1="150.025" x2="529.318" y2="266.939" stroke="#37A6EA" stroke-width="12"/>
<rect x="198.885" y="219.619" width="50.3514" height="85.0698" rx="25.1757" transform="rotate(46.6674 198.885 219.619)" stroke="#37A6EA" stroke-width="12"/>
<path d="M338.579 309.173L420.536 366.282C431.381 373.839 446.3 371.174 453.857 360.328V360.328C461.414 349.483 458.749 334.565 447.903 327.007L365.946 269.898" stroke="#37A6EA" stroke-width="12"/>
<path d="M374.285 276.012L457.873 334.257C469.231 342.172 484.854 339.38 492.769 328.022V328.022C500.683 316.664 497.892 301.041 486.534 293.127L455.022 271.169L388.229 221.053" stroke="#37A6EA" stroke-width="12"/>
<path d="M335.942 366.53L375.052 392.761C395.895 406.741 422.253 385.314 412.824 362.055V362.055" stroke="#37A6EA" stroke-width="12"/>
<rect x="248.736" y="241.062" width="52.3763" height="108.298" rx="26.1881" transform="rotate(46.6674 248.736 241.062)" stroke="#37A6EA" stroke-width="12"/>
<rect x="286.261" y="277.212" width="47.4796" height="101.77" rx="23.7398" transform="rotate(46.6674 286.261 277.212)" stroke="#37A6EA" stroke-width="12"/>
<rect x="320.716" y="316.113" width="45.3251" height="78.6562" rx="22.6625" transform="rotate(46.6674 320.716 316.113)" stroke="#37A6EA" stroke-width="12"/>
<path d="M370.62 264.673C369.75 264.066 368.348 262.97 367.341 262.702C366.333 262.434 365.304 262.353 364.313 262.464C363.322 262.575 362.387 262.875 361.563 263.348C360.739 263.821 360.041 264.458 359.509 265.221C358.977 265.984 358.622 266.859 358.464 267.796C358.306 268.733 358.348 269.714 358.588 270.682C358.827 271.65 359.26 272.588 359.86 273.44C360.461 274.292 361.218 275.043 362.088 275.649L366.137 269.838L370.62 264.673Z" fill="#36B8FD"/>
<path d="M343.609 304.167C342.739 303.561 341.337 302.464 340.328 302.199C339.319 301.933 338.288 301.855 337.294 301.97C336.3 302.085 335.362 302.39 334.534 302.869C333.706 303.347 333.004 303.989 332.468 304.758C331.932 305.527 331.573 306.408 331.412 307.35C331.25 308.293 331.288 309.278 331.525 310.251C331.761 311.223 332.192 312.164 332.791 313.018C333.39 313.873 334.146 314.625 335.016 315.231L339.096 309.375L343.609 304.167Z" fill="#36B8FD"/>
<path d="M392.797 215.76C391.927 215.153 390.525 214.057 389.517 213.79C388.508 213.524 387.478 213.445 386.484 213.559C385.491 213.672 384.554 213.976 383.728 214.453C382.901 214.929 382.2 215.57 381.666 216.337C381.131 217.104 380.774 217.983 380.613 218.923C380.452 219.864 380.492 220.848 380.73 221.819C380.967 222.79 381.398 223.73 381.998 224.583C382.597 225.437 383.354 226.189 384.224 226.795L388.293 220.954L392.797 215.76Z" fill="#36B8FD"/>
<path d="M284.006 138.552C285.87 146.833 291.257 154.113 299.45 159.421C307.642 164.729 318.249 167.812 329.854 168.259C341.46 168.705 353.511 166.494 364.399 161.92C375.287 157.346 384.494 150.627 390.791 142.66" stroke="#37A6EA" stroke-width="12"/>
<path d="M284.06 138.86C283.865 137.993 290.145 133.805 304.133 129.909C318.12 126.012 351.285 106.042 374.477 100.502C397.669 94.9619 432.655 126.847 456.798 121.635C480.941 116.423 485.282 112.774 501.784 109.745" stroke="#37A6EA" stroke-width="12"/>
</svg>
