<svg width="43" height="44" viewBox="0 0 43 44" fill="none" xmlns="http://www.w3.org/2000/svg">
<path d="M5.5 34.8V41H6.35V34H0.8V41H1.65V34.8H5.5ZM8.64844 43.2V36.4H7.84844V43.2H8.64844ZM12.4984 38.7C12.4984 38.2 12.3951 37.7733 12.1884 37.42C11.9818 37.06 11.7051 36.7833 11.3584 36.59C11.0184 36.3967 10.6384 36.3 10.2184 36.3C9.83844 36.3 9.50177 36.3967 9.20844 36.59C8.92177 36.7833 8.6951 37.06 8.52844 37.42C8.36844 37.7733 8.28844 38.2 8.28844 38.7C8.28844 39.1933 8.36844 39.62 8.52844 39.98C8.6951 40.34 8.92177 40.6167 9.20844 40.81C9.50177 41.0033 9.83844 41.1 10.2184 41.1C10.6384 41.1 11.0184 41.0033 11.3584 40.81C11.7051 40.6167 11.9818 40.34 12.1884 39.98C12.3951 39.62 12.4984 39.1933 12.4984 38.7ZM11.6884 38.7C11.6884 39.0533 11.6151 39.3533 11.4684 39.6C11.3284 39.8467 11.1384 40.0333 10.8984 40.16C10.6651 40.2867 10.4051 40.35 10.1184 40.35C9.8851 40.35 9.6551 40.2867 9.42844 40.16C9.20177 40.0333 9.0151 39.8467 8.86844 39.6C8.72177 39.3533 8.64844 39.0533 8.64844 38.7C8.64844 38.3467 8.72177 38.0467 8.86844 37.8C9.0151 37.5533 9.20177 37.3667 9.42844 37.24C9.6551 37.1133 9.8851 37.05 10.1184 37.05C10.4051 37.05 10.6651 37.1133 10.8984 37.24C11.1384 37.3667 11.3284 37.5533 11.4684 37.8C11.6151 38.0467 11.6884 38.3467 11.6884 38.7ZM13.2016 38.7C13.2016 39.16 13.3049 39.5733 13.5116 39.94C13.7249 40.3 14.0116 40.5833 14.3716 40.79C14.7316 40.9967 15.1349 41.1 15.5816 41.1C16.0349 41.1 16.4382 40.9967 16.7916 40.79C17.1516 40.5833 17.4349 40.3 17.6416 39.94C17.8549 39.5733 17.9616 39.16 17.9616 38.7C17.9616 38.2333 17.8549 37.82 17.6416 37.46C17.4349 37.1 17.1516 36.8167 16.7916 36.61C16.4382 36.4033 16.0349 36.3 15.5816 36.3C15.1349 36.3 14.7316 36.4033 14.3716 36.61C14.0116 36.8167 13.7249 37.1 13.5116 37.46C13.3049 37.82 13.2016 38.2333 13.2016 38.7ZM14.0116 38.7C14.0116 38.38 14.0782 38.0967 14.2116 37.85C14.3516 37.5967 14.5382 37.4 14.7716 37.26C15.0116 37.12 15.2816 37.05 15.5816 37.05C15.8816 37.05 16.1482 37.12 16.3816 37.26C16.6216 37.4 16.8082 37.5967 16.9416 37.85C17.0816 38.0967 17.1516 38.38 17.1516 38.7C17.1516 39.02 17.0816 39.3033 16.9416 39.55C16.8082 39.7967 16.6216 39.9933 16.3816 40.14C16.1482 40.28 15.8816 40.35 15.5816 40.35C15.2816 40.35 15.0116 40.28 14.7716 40.14C14.5382 39.9933 14.3516 39.7967 14.2116 39.55C14.0782 39.3033 14.0116 39.02 14.0116 38.7ZM20.8405 35.4V42H21.6405V35.4H20.8405ZM18.6605 38.7C18.6605 39.16 18.7672 39.5733 18.9805 39.94C19.1939 40.3 19.4939 40.5833 19.8805 40.79C20.2739 40.9967 20.7272 41.1 21.2405 41.1C21.7605 41.1 22.2139 40.9967 22.6005 40.79C22.9872 40.5833 23.2872 40.3 23.5005 39.94C23.7139 39.5733 23.8205 39.16 23.8205 38.7C23.8205 38.2333 23.7139 37.82 23.5005 37.46C23.2872 37.1 22.9872 36.8167 22.6005 36.61C22.2139 36.4033 21.7605 36.3 21.2405 36.3C20.7272 36.3 20.2739 36.4033 19.8805 36.61C19.4939 36.8167 19.1939 37.1 18.9805 37.46C18.7672 37.82 18.6605 38.2333 18.6605 38.7ZM19.4705 38.7C19.4705 38.38 19.5405 38.0967 19.6805 37.85C19.8272 37.5967 20.0305 37.4 20.2905 37.26C20.5572 37.12 20.8739 37.05 21.2405 37.05C21.6072 37.05 21.9205 37.12 22.1805 37.26C22.4472 37.4 22.6505 37.5967 22.7905 37.85C22.9372 38.0967 23.0105 38.38 23.0105 38.7C23.0105 39.02 22.9372 39.3033 22.7905 39.55C22.6505 39.7967 22.4472 39.9933 22.1805 40.14C21.9205 40.28 21.6072 40.35 21.2405 40.35C20.8739 40.35 20.5572 40.28 20.2905 40.14C20.0305 39.9933 19.8272 39.7967 19.6805 39.55C19.5405 39.3033 19.4705 39.02 19.4705 38.7ZM25.8999 35.64V41H25.0199V35.64H25.8999ZM25.4699 33.63C25.6033 33.63 25.7199 33.6767 25.8199 33.77C25.9266 33.8567 25.9799 33.9967 25.9799 34.19C25.9799 34.3767 25.9266 34.5167 25.8199 34.61C25.7199 34.7033 25.6033 34.75 25.4699 34.75C25.3233 34.75 25.1999 34.7033 25.0999 34.61C24.9999 34.5167 24.9499 34.3767 24.9499 34.19C24.9499 33.9967 24.9999 33.8567 25.0999 33.77C25.1999 33.6767 25.3233 33.63 25.4699 33.63ZM31.528 36.4H27.578V39.4C27.578 39.7267 27.5047 39.9533 27.358 40.08C27.218 40.2067 27.048 40.27 26.848 40.27V41C27.1947 41 27.4814 40.9433 27.708 40.83C27.9347 40.71 28.1014 40.5333 28.208 40.3C28.3214 40.06 28.378 39.76 28.378 39.4V37.15H30.728V41H31.528V36.4ZM33.0742 36.4V41H33.8742V36.4H33.0742ZM33.5442 38.84H34.9742C35.2676 38.84 35.4876 38.9033 35.6342 39.03C35.7809 39.1567 35.8542 39.3367 35.8542 39.57C35.8542 39.7233 35.8209 39.8567 35.7542 39.97C35.6876 40.0767 35.5876 40.16 35.4542 40.22C35.3276 40.2733 35.1676 40.3 34.9742 40.3H33.5442V41H34.9742C35.2942 41 35.5809 40.95 35.8342 40.85C36.0876 40.75 36.2876 40.5933 36.4342 40.38C36.5809 40.1667 36.6542 39.8967 36.6542 39.57C36.6542 39.0767 36.4909 38.7167 36.1642 38.49C35.8442 38.2567 35.4476 38.14 34.9742 38.14H33.5442V38.84Z" fill="white"/>
<circle cx="20.4102" cy="12.3077" r="4.74359" stroke="white" stroke-width="2"/>
<circle cx="20" cy="16" r="15" stroke="white" stroke-width="2"/>
<path d="M28.6154 28.7181C28.6154 26.5419 27.7509 24.4549 26.2122 22.9162C24.6734 21.3774 22.5864 21.7436 20.4103 21.7436C18.2341 21.7436 16.1471 21.3774 14.6084 22.9162C13.0696 24.4549 12.2051 26.5419 12.2051 28.7181" stroke="white" stroke-width="2"/>
<circle cx="20.4102" cy="12.3077" r="4.74359" stroke="white" stroke-width="2"/>
<circle cx="20" cy="16" r="15" stroke="white" stroke-width="2"/>
<path d="M28.6154 28.7181C28.6154 26.5419 27.7509 24.4549 26.2122 22.9162C24.6734 21.3774 22.5864 21.7436 20.4103 21.7436C18.2341 21.7436 16.1471 21.3774 14.6084 22.9162C13.0696 24.4549 12.2051 26.5419 12.2051 28.7181" stroke="white" stroke-width="2"/>
</svg>
