<svg width="48" height="46" viewBox="0 0 48 46" fill="none" xmlns="http://www.w3.org/2000/svg">
<path d="M3.95 36.58L5.9 41.7H6.8L3.95 34.65L1.1 41.7H2L3.95 36.58ZM6.75 42V43.1H7.5V41.2H0.4V43.1H1.15V42H6.75ZM8.29922 39.7C8.29922 40.16 8.40255 40.5733 8.60922 40.94C8.82255 41.3 9.10922 41.5833 9.46922 41.79C9.82922 41.9967 10.2326 42.1 10.6792 42.1C11.1326 42.1 11.5359 41.9967 11.8892 41.79C12.2492 41.5833 12.5326 41.3 12.7392 40.94C12.9526 40.5733 13.0592 40.16 13.0592 39.7C13.0592 39.2333 12.9526 38.82 12.7392 38.46C12.5326 38.1 12.2492 37.8167 11.8892 37.61C11.5359 37.4033 11.1326 37.3 10.6792 37.3C10.2326 37.3 9.82922 37.4033 9.46922 37.61C9.10922 37.8167 8.82255 38.1 8.60922 38.46C8.40255 38.82 8.29922 39.2333 8.29922 39.7ZM9.10922 39.7C9.10922 39.38 9.17589 39.0967 9.30922 38.85C9.44922 38.5967 9.63589 38.4 9.86922 38.26C10.1092 38.12 10.3792 38.05 10.6792 38.05C10.9792 38.05 11.2459 38.12 11.4792 38.26C11.7192 38.4 11.9059 38.5967 12.0392 38.85C12.1792 39.0967 12.2492 39.38 12.2492 39.7C12.2492 40.02 12.1792 40.3033 12.0392 40.55C11.9059 40.7967 11.7192 40.9933 11.4792 41.14C11.2459 41.28 10.9792 41.35 10.6792 41.35C10.3792 41.35 10.1092 41.28 9.86922 41.14C9.63589 40.9933 9.44922 40.7967 9.30922 40.55C9.17589 40.3033 9.10922 40.02 9.10922 39.7ZM14.1082 37.4V42H14.9082V37.4H14.1082ZM16.6082 37.4L14.6082 39.3L16.8082 42H17.8082L15.6082 39.3L17.6082 37.4H16.6082ZM22.359 37.4H21.459L20.039 40.96L20.369 41L18.909 37.4H17.959L19.719 41.35L18.459 44.2H19.359L22.359 37.4ZM27.4833 42H28.3833L27.1833 37.05L26.7333 38.35L27.4833 42ZM25.0833 41.31L25.3833 42.31L27.2833 38.65L27.1833 37.05L25.0833 41.31ZM25.3833 42.31L25.6833 41.31L23.6133 37.05L23.5133 38.65L25.3833 42.31ZM22.4133 42H23.3133L24.0633 38.35L23.6133 37.05L22.4133 42ZM29.2975 39.9H33.2275C33.2342 39.86 33.2375 39.82 33.2375 39.78C33.2375 39.74 33.2375 39.7 33.2375 39.66C33.2375 39.1733 33.1475 38.7567 32.9675 38.41C32.7875 38.0567 32.5342 37.7833 32.2075 37.59C31.8808 37.3967 31.5008 37.3 31.0675 37.3C30.6742 37.3 30.3175 37.38 29.9975 37.54C29.6842 37.7 29.4275 37.9233 29.2275 38.21C29.0275 38.4967 28.8942 38.83 28.8275 39.21C28.8142 39.29 28.8042 39.37 28.7975 39.45C28.7908 39.53 28.7875 39.6133 28.7875 39.7C28.7875 40.16 28.8808 40.5733 29.0675 40.94C29.2608 41.3 29.5208 41.5833 29.8475 41.79C30.1808 41.9967 30.5542 42.1 30.9675 42.1C31.3675 42.1 31.7008 42.0533 31.9675 41.96C32.2342 41.86 32.4608 41.7233 32.6475 41.55C32.8342 41.37 33.0042 41.1633 33.1575 40.93L32.5075 40.52C32.4075 40.6867 32.2875 40.8333 32.1475 40.96C32.0075 41.08 31.8475 41.1767 31.6675 41.25C31.4942 41.3167 31.2942 41.35 31.0675 41.35C30.7675 41.35 30.5075 41.2867 30.2875 41.16C30.0675 41.0333 29.8975 40.8467 29.7775 40.6C29.6575 40.3533 29.5975 40.0533 29.5975 39.7L29.6175 39.4C29.6175 39.1133 29.6808 38.8667 29.8075 38.66C29.9408 38.4467 30.1175 38.2833 30.3375 38.17C30.5575 38.0567 30.8008 38 31.0675 38C31.3342 38 31.5575 38.0533 31.7375 38.16C31.9242 38.26 32.0675 38.4033 32.1675 38.59C32.2742 38.77 32.3408 38.98 32.3675 39.22H29.2975V39.9ZM34.804 39.95H38.204V39.2H34.804V39.95ZM37.684 37.4V42H38.484V37.4H37.684ZM34.334 37.4V42H35.134V37.4H34.334ZM39.2883 37.4V38.15H41.9883V37.4H39.2883ZM40.2383 37.6V42H41.0383V37.6H40.2383ZM46.641 38.2L46.691 37.05L42.891 41.2L42.841 42.35L46.641 38.2ZM43.641 37.4H42.841V42.35L43.641 41.25V37.4ZM46.691 37.05L45.891 38.15V42H46.691V37.05Z" fill="white"/>
<rect x="11" width="28" height="32" rx="5" fill="white"/>
<path d="M39 7H38C34.134 7 31 3.86599 31 0V0" stroke="#36BAFE" stroke-width="2"/>
<line x1="16" y1="14.5" x2="36" y2="14.5" stroke="#36BAFE"/>
<line x1="16" y1="10.5" x2="33" y2="10.5" stroke="#36BAFE"/>
<line x1="16" y1="6.5" x2="29" y2="6.5" stroke="#36BAFE"/>
<line x1="16" y1="22.5" x2="36" y2="22.5" stroke="#36BAFE"/>
<line x1="16" y1="18.5" x2="36" y2="18.5" stroke="#36BAFE"/>
<line x1="16" y1="26.5" x2="36" y2="26.5" stroke="#36BAFE"/>
</svg>
