<svg width="52" height="47" viewBox="0 0 52 47" fill="none" xmlns="http://www.w3.org/2000/svg">
<path d="M16.1327 33.664L17.6927 37.76H18.4127L16.1327 32.12L13.8527 37.76H14.5727L16.1327 33.664ZM18.3727 38V38.88H18.9727V37.36H13.2927V38.88H13.8927V38H18.3727ZM19.612 36.16C19.612 36.528 19.6947 36.8587 19.86 37.152C20.0307 37.44 20.26 37.6667 20.548 37.832C20.836 37.9973 21.1587 38.08 21.516 38.08C21.8787 38.08 22.2014 37.9973 22.484 37.832C22.772 37.6667 22.9987 37.44 23.164 37.152C23.3347 36.8587 23.42 36.528 23.42 36.16C23.42 35.7867 23.3347 35.456 23.164 35.168C22.9987 34.88 22.772 34.6533 22.484 34.488C22.2014 34.3227 21.8787 34.24 21.516 34.24C21.1587 34.24 20.836 34.3227 20.548 34.488C20.26 34.6533 20.0307 34.88 19.86 35.168C19.6947 35.456 19.612 35.7867 19.612 36.16ZM20.26 36.16C20.26 35.904 20.3134 35.6773 20.42 35.48C20.532 35.2773 20.6814 35.12 20.868 35.008C21.06 34.896 21.276 34.84 21.516 34.84C21.756 34.84 21.9694 34.896 22.156 35.008C22.348 35.12 22.4974 35.2773 22.604 35.48C22.716 35.6773 22.772 35.904 22.772 36.16C22.772 36.416 22.716 36.6427 22.604 36.84C22.4974 37.0373 22.348 37.1947 22.156 37.312C21.9694 37.424 21.756 37.48 21.516 37.48C21.276 37.48 21.06 37.424 20.868 37.312C20.6814 37.1947 20.532 37.0373 20.42 36.84C20.3134 36.6427 20.26 36.416 20.26 36.16ZM25.9008 35.424L26.9808 37.76H27.7008L25.9008 34.04L24.1008 37.76H24.8208L25.9008 35.424ZM27.5408 38V38.72H28.1808V37.4H23.6208V38.72H24.3008V38H27.5408ZM29.431 36.92C29.431 36.7707 29.4656 36.6427 29.535 36.536C29.6043 36.4293 29.7083 36.3467 29.847 36.288C29.991 36.2293 30.1696 36.2 30.383 36.2C30.6176 36.2 30.8283 36.232 31.015 36.296C31.2016 36.3547 31.3856 36.448 31.567 36.576V36.2C31.5296 36.152 31.4603 36.0907 31.359 36.016C31.2576 35.936 31.1216 35.8667 30.951 35.808C30.7856 35.744 30.5856 35.712 30.351 35.712C30.031 35.712 29.7536 35.7627 29.519 35.864C29.2843 35.96 29.103 36.0987 28.975 36.28C28.847 36.4613 28.783 36.6827 28.783 36.944C28.783 37.1947 28.839 37.4053 28.951 37.576C29.0683 37.7413 29.223 37.8667 29.415 37.952C29.607 38.0373 29.8176 38.08 30.047 38.08C30.303 38.08 30.535 38.0373 30.743 37.952C30.951 37.8613 31.1163 37.7333 31.239 37.568C31.367 37.3973 31.431 37.1947 31.431 36.96L31.303 36.56C31.303 36.7893 31.255 36.9733 31.159 37.112C31.0683 37.2507 30.9403 37.352 30.775 37.416C30.6096 37.48 30.4203 37.512 30.207 37.512C30.063 37.512 29.9323 37.4907 29.815 37.448C29.6976 37.4 29.6043 37.3333 29.535 37.248C29.4656 37.1573 29.431 37.048 29.431 36.92ZM29.431 35.184C29.4896 35.1413 29.5696 35.0907 29.671 35.032C29.7776 34.968 29.903 34.9147 30.047 34.872C30.191 34.824 30.351 34.8 30.527 34.8C30.7296 34.8 30.9083 34.848 31.063 34.944C31.223 35.0347 31.303 35.1733 31.303 35.36V38H31.943V35.36C31.943 35.12 31.8816 34.9173 31.759 34.752C31.6416 34.5867 31.4763 34.4613 31.263 34.376C31.055 34.2853 30.8096 34.24 30.527 34.24C30.1963 34.24 29.9136 34.2907 29.679 34.392C29.4443 34.4933 29.2576 34.5947 29.119 34.696L29.431 35.184ZM32.4658 34.32V34.92H34.6258V34.32H32.4658ZM33.2258 34.48V38H33.8658V34.48H33.2258ZM38.348 34.96L38.388 34.04L35.348 37.36L35.308 38.28L38.348 34.96ZM35.948 34.32H35.308V38.28L35.948 37.4V34.32ZM38.388 34.04L37.748 34.92V38H38.388V34.04ZM10.1625 42.424L11.2425 44.76H11.9625L10.1625 41.04L8.3625 44.76H9.0825L10.1625 42.424ZM11.8025 45V45.72H12.4425V44.4H7.8825V45.72H8.5625V45H11.8025ZM13.0847 43.16C13.0847 43.528 13.1674 43.8587 13.3327 44.152C13.5034 44.44 13.7327 44.6667 14.0207 44.832C14.3087 44.9973 14.6314 45.08 14.9887 45.08C15.3514 45.08 15.674 44.9973 15.9567 44.832C16.2447 44.6667 16.4714 44.44 16.6367 44.152C16.8074 43.8587 16.8927 43.528 16.8927 43.16C16.8927 42.7867 16.8074 42.456 16.6367 42.168C16.4714 41.88 16.2447 41.6533 15.9567 41.488C15.674 41.3227 15.3514 41.24 14.9887 41.24C14.6314 41.24 14.3087 41.3227 14.0207 41.488C13.7327 41.6533 13.5034 41.88 13.3327 42.168C13.1674 42.456 13.0847 42.7867 13.0847 43.16ZM13.7327 43.16C13.7327 42.904 13.786 42.6773 13.8927 42.48C14.0047 42.2773 14.154 42.12 14.3407 42.008C14.5327 41.896 14.7487 41.84 14.9887 41.84C15.2287 41.84 15.442 41.896 15.6287 42.008C15.8207 42.12 15.97 42.2773 16.0767 42.48C16.1887 42.6773 16.2447 42.904 16.2447 43.16C16.2447 43.416 16.1887 43.6427 16.0767 43.84C15.97 44.0373 15.8207 44.1947 15.6287 44.312C15.442 44.424 15.2287 44.48 14.9887 44.48C14.7487 44.48 14.5327 44.424 14.3407 44.312C14.154 44.1947 14.0047 44.0373 13.8927 43.84C13.786 43.6427 13.7327 43.416 13.7327 43.16ZM17.7319 41.32V45H18.3719V41.32H17.7319ZM19.7319 41.32L18.1319 42.84L19.8919 45H20.6919L18.9319 42.84L20.5319 41.32H19.7319ZM24.3325 41.32H23.6125L22.4765 44.168L22.7405 44.2L21.5725 41.32H20.8125L22.2205 44.48L21.2125 46.76H21.9325L24.3325 41.32ZM28.4319 45H29.1519L28.1919 41.04L27.8319 42.08L28.4319 45ZM26.5119 44.448L26.7519 45.248L28.2719 42.32L28.1919 41.04L26.5119 44.448ZM26.7519 45.248L26.9919 44.448L25.3359 41.04L25.2559 42.32L26.7519 45.248ZM24.3759 45H25.0959L25.6959 42.08L25.3359 41.04L24.3759 45ZM29.8833 43.32H33.0273C33.0326 43.288 33.0353 43.256 33.0353 43.224C33.0353 43.192 33.0353 43.16 33.0353 43.128C33.0353 42.7387 32.9633 42.4053 32.8193 42.128C32.6753 41.8453 32.4726 41.6267 32.2113 41.472C31.95 41.3173 31.646 41.24 31.2993 41.24C30.9846 41.24 30.6993 41.304 30.4433 41.432C30.1926 41.56 29.9873 41.7387 29.8273 41.968C29.6673 42.1973 29.5606 42.464 29.5073 42.768C29.4966 42.832 29.4886 42.896 29.4833 42.96C29.478 43.024 29.4753 43.0907 29.4753 43.16C29.4753 43.528 29.55 43.8587 29.6993 44.152C29.854 44.44 30.062 44.6667 30.3233 44.832C30.59 44.9973 30.8886 45.08 31.2193 45.08C31.5393 45.08 31.806 45.0427 32.0193 44.968C32.2326 44.888 32.414 44.7787 32.5633 44.64C32.7126 44.496 32.8486 44.3307 32.9713 44.144L32.4513 43.816C32.3713 43.9493 32.2753 44.0667 32.1633 44.168C32.0513 44.264 31.9233 44.3413 31.7793 44.4C31.6406 44.4533 31.4806 44.48 31.2993 44.48C31.0593 44.48 30.8513 44.4293 30.6753 44.328C30.4993 44.2267 30.3633 44.0773 30.2673 43.88C30.1713 43.6827 30.1233 43.4427 30.1233 43.16L30.1393 42.92C30.1393 42.6907 30.19 42.4933 30.2913 42.328C30.398 42.1573 30.5393 42.0267 30.7153 41.936C30.8913 41.8453 31.086 41.8 31.2993 41.8C31.5126 41.8 31.6913 41.8427 31.8353 41.928C31.9846 42.008 32.0993 42.1227 32.1793 42.272C32.2646 42.416 32.318 42.584 32.3393 42.776H29.8833V43.32ZM34.2885 43.36H37.0085V42.76H34.2885V43.36ZM36.5925 41.32V45H37.2325V41.32H36.5925ZM33.9125 41.32V45H34.5525V41.32H33.9125ZM37.8759 41.32V41.92H40.0359V41.32H37.8759ZM38.6359 41.48V45H39.2759V41.48H38.6359ZM43.7581 41.96L43.7981 41.04L40.7581 44.36L40.7181 45.28L43.7581 41.96ZM41.3581 41.32H40.7181V45.28L41.3581 44.4V41.32ZM43.7981 41.04L43.1581 41.92V45H43.7981V41.04Z" fill="white"/>
<rect x="11" y="14" width="30" height="4" rx="2" fill="white"/>
<rect x="24" y="30" width="30" height="4" rx="2" transform="rotate(-90 24 30)" fill="white"/>
</svg>
