<svg width="37" height="48" viewBox="0 0 37 48" fill="none" xmlns="http://www.w3.org/2000/svg">
<rect x="4" y="4" width="11" height="11" rx="2" stroke="white" stroke-width="2"/>
<rect x="4" y="21" width="11" height="11" rx="2" stroke="white" stroke-width="2"/>
<rect x="21" y="21" width="11" height="11" rx="2" stroke="white" stroke-width="2"/>
<rect x="18.0396" y="10.5957" width="10.809" height="10.809" rx="2" transform="rotate(-53 18.0396 10.5957)" stroke="white" stroke-width="2"/>
<path d="M5.5 37.8V44H6.35V37H0.8V44H1.65V37.8H5.5ZM7.49844 41.7C7.49844 42.16 7.60177 42.5733 7.80844 42.94C8.02177 43.3 8.30844 43.5833 8.66844 43.79C9.02844 43.9967 9.43177 44.1 9.87844 44.1C10.3318 44.1 10.7351 43.9967 11.0884 43.79C11.4484 43.5833 11.7318 43.3 11.9384 42.94C12.1518 42.5733 12.2584 42.16 12.2584 41.7C12.2584 41.2333 12.1518 40.82 11.9384 40.46C11.7318 40.1 11.4484 39.8167 11.0884 39.61C10.7351 39.4033 10.3318 39.3 9.87844 39.3C9.43177 39.3 9.02844 39.4033 8.66844 39.61C8.30844 39.8167 8.02177 40.1 7.80844 40.46C7.60177 40.82 7.49844 41.2333 7.49844 41.7ZM8.30844 41.7C8.30844 41.38 8.3751 41.0967 8.50844 40.85C8.64844 40.5967 8.8351 40.4 9.06844 40.26C9.30844 40.12 9.57844 40.05 9.87844 40.05C10.1784 40.05 10.4451 40.12 10.6784 40.26C10.9184 40.4 11.1051 40.5967 11.2384 40.85C11.3784 41.0967 11.4484 41.38 11.4484 41.7C11.4484 42.02 11.3784 42.3033 11.2384 42.55C11.1051 42.7967 10.9184 42.9933 10.6784 43.14C10.4451 43.28 10.1784 43.35 9.87844 43.35C9.57844 43.35 9.30844 43.28 9.06844 43.14C8.8351 42.9933 8.64844 42.7967 8.50844 42.55C8.3751 42.3033 8.30844 42.02 8.30844 41.7ZM13.7174 41.7C13.7174 41.38 13.7841 41.0967 13.9174 40.85C14.0574 40.5967 14.2441 40.4 14.4774 40.26C14.7174 40.12 14.9874 40.05 15.2874 40.05C15.5341 40.05 15.7641 40.09 15.9774 40.17C16.1974 40.2433 16.3874 40.3433 16.5474 40.47C16.7074 40.5967 16.8208 40.7367 16.8874 40.89V39.89C16.7274 39.7033 16.4974 39.56 16.1974 39.46C15.9041 39.3533 15.6008 39.3 15.2874 39.3C14.8408 39.3 14.4374 39.4033 14.0774 39.61C13.7174 39.8167 13.4308 40.1 13.2174 40.46C13.0108 40.82 12.9074 41.2333 12.9074 41.7C12.9074 42.16 13.0108 42.5733 13.2174 42.94C13.4308 43.3 13.7174 43.5833 14.0774 43.79C14.4374 43.9967 14.8408 44.1 15.2874 44.1C15.6008 44.1 15.9041 44.05 16.1974 43.95C16.4974 43.8433 16.7274 43.6967 16.8874 43.51V42.51C16.8208 42.6567 16.7074 42.7967 16.5474 42.93C16.3874 43.0567 16.1974 43.16 15.9774 43.24C15.7641 43.3133 15.5341 43.35 15.2874 43.35C14.9874 43.35 14.7174 43.28 14.4774 43.14C14.2441 42.9933 14.0574 42.7967 13.9174 42.55C13.7841 42.3033 13.7174 42.02 13.7174 41.7ZM22.1628 39.4H18.2128V42.4C18.2128 42.7267 18.1395 42.9533 17.9928 43.08C17.8528 43.2067 17.6828 43.27 17.4828 43.27V44C17.8295 44 18.1161 43.9433 18.3428 43.83C18.5695 43.71 18.7361 43.5333 18.8428 43.3C18.9561 43.06 19.0128 42.76 19.0128 42.4V40.15H21.3628V44H22.1628V39.4ZM27.359 39.4H26.459L25.039 42.96L25.369 43L23.909 39.4H22.959L24.719 43.35L23.459 46.2H24.359L27.359 39.4ZM28.1633 39.4V44H28.9633V40.15H30.6133V39.4H28.1633ZM35.2641 40.2L35.3141 39.05L31.5141 43.2L31.4641 44.35L35.2641 40.2ZM32.2641 39.4H31.4641V44.35L32.2641 43.25V39.4ZM35.3141 39.05L34.5141 40.15V44H35.3141V39.05Z" fill="white"/>
</svg>
