<svg width="54" height="45" viewBox="0 0 54 45" fill="none" xmlns="http://www.w3.org/2000/svg">
<path d="M2.83 37.55C3.21667 37.55 3.56667 37.5033 3.88 37.41C4.2 37.3167 4.47333 37.19 4.7 37.03C4.92667 36.8633 5.1 36.6733 5.22 36.46C5.34667 36.24 5.41 36.0067 5.41 35.76C5.41 35.4267 5.32 35.12 5.14 34.84C4.96 34.56 4.70333 34.3333 4.37 34.16C4.03667 33.9867 3.63667 33.9 3.17 33.9C2.72333 33.9 2.32667 33.98 1.98 34.14C1.64 34.2933 1.37333 34.5067 1.18 34.78C0.993333 35.0533 0.9 35.3733 0.9 35.74H1.71C1.71 35.5333 1.77333 35.35 1.9 35.19C2.02667 35.03 2.2 34.9033 2.42 34.81C2.64667 34.7167 2.9 34.67 3.18 34.67C3.48 34.67 3.73 34.7167 3.93 34.81C4.13667 34.9033 4.29 35.0367 4.39 35.21C4.49 35.3767 4.54 35.57 4.54 35.79C4.54 36.01 4.47333 36.2133 4.34 36.4C4.20667 36.58 4.01333 36.7267 3.76 36.84C3.50667 36.9467 3.19667 37 2.83 37V37.55ZM3.13 41.1C3.65 41.1 4.09333 41.02 4.46 40.86C4.83333 40.7 5.11667 40.4733 5.31 40.18C5.51 39.8867 5.61 39.5433 5.61 39.15C5.61 38.6833 5.48667 38.31 5.24 38.03C4.99333 37.7433 4.66 37.5333 4.24 37.4C3.82 37.2667 3.35 37.2 2.83 37.2V37.75C3.19667 37.75 3.52333 37.8 3.81 37.9C4.09667 37.9933 4.32333 38.1367 4.49 38.33C4.65667 38.5233 4.74 38.7633 4.74 39.05C4.74 39.43 4.61 39.7333 4.35 39.96C4.09 40.1867 3.68333 40.3 3.13 40.3C2.76333 40.3 2.46 40.25 2.22 40.15C1.98667 40.05 1.80667 39.9133 1.68 39.74C1.56 39.5667 1.48667 39.37 1.46 39.15H0.6C0.6 39.4233 0.653333 39.68 0.76 39.92C0.873333 40.1533 1.03667 40.36 1.25 40.54C1.46333 40.7133 1.72667 40.85 2.04 40.95C2.35333 41.05 2.71667 41.1 3.13 41.1ZM7.17445 39.65C7.17445 39.4633 7.21779 39.3033 7.30445 39.17C7.39112 39.0367 7.52112 38.9333 7.69445 38.86C7.87445 38.7867 8.09779 38.75 8.36445 38.75C8.65779 38.75 8.92112 38.79 9.15445 38.87C9.38779 38.9433 9.61779 39.06 9.84445 39.22V38.75C9.79779 38.69 9.71112 38.6133 9.58445 38.52C9.45779 38.42 9.28779 38.3333 9.07445 38.26C8.86779 38.18 8.61779 38.14 8.32445 38.14C7.92445 38.14 7.57779 38.2033 7.28445 38.33C6.99112 38.45 6.76445 38.6233 6.60445 38.85C6.44445 39.0767 6.36445 39.3533 6.36445 39.68C6.36445 39.9933 6.43445 40.2567 6.57445 40.47C6.72112 40.6767 6.91445 40.8333 7.15445 40.94C7.39445 41.0467 7.65779 41.1 7.94445 41.1C8.26445 41.1 8.55445 41.0467 8.81445 40.94C9.07445 40.8267 9.28112 40.6667 9.43445 40.46C9.59445 40.2467 9.67445 39.9933 9.67445 39.7L9.51445 39.2C9.51445 39.4867 9.45445 39.7167 9.33445 39.89C9.22112 40.0633 9.06112 40.19 8.85445 40.27C8.64779 40.35 8.41112 40.39 8.14445 40.39C7.96445 40.39 7.80112 40.3633 7.65445 40.31C7.50779 40.25 7.39112 40.1667 7.30445 40.06C7.21779 39.9467 7.17445 39.81 7.17445 39.65ZM7.17445 37.48C7.24779 37.4267 7.34779 37.3633 7.47445 37.29C7.60779 37.21 7.76445 37.1433 7.94445 37.09C8.12445 37.03 8.32445 37 8.54445 37C8.79779 37 9.02112 37.06 9.21445 37.18C9.41445 37.2933 9.51445 37.4667 9.51445 37.7V41H10.3145V37.7C10.3145 37.4 10.2378 37.1467 10.0845 36.94C9.93779 36.7333 9.73112 36.5767 9.46445 36.47C9.20445 36.3567 8.89779 36.3 8.54445 36.3C8.13112 36.3 7.77779 36.3633 7.48445 36.49C7.19112 36.6167 6.95779 36.7433 6.78445 36.87L7.17445 37.48ZM16.038 41H16.938L15.738 36.05L15.288 37.35L16.038 41ZM13.638 40.31L13.938 41.31L15.838 37.65L15.738 36.05L13.638 40.31ZM13.938 41.31L14.238 40.31L12.168 36.05L12.068 37.65L13.938 41.31ZM10.968 41H11.868L12.618 37.35L12.168 36.05L10.968 41ZM17.3422 38.7C17.3422 39.16 17.4455 39.5733 17.6522 39.94C17.8655 40.3 18.1522 40.5833 18.5122 40.79C18.8722 40.9967 19.2755 41.1 19.7222 41.1C20.1755 41.1 20.5789 40.9967 20.9322 40.79C21.2922 40.5833 21.5755 40.3 21.7822 39.94C21.9955 39.5733 22.1022 39.16 22.1022 38.7C22.1022 38.2333 21.9955 37.82 21.7822 37.46C21.5755 37.1 21.2922 36.8167 20.9322 36.61C20.5789 36.4033 20.1755 36.3 19.7222 36.3C19.2755 36.3 18.8722 36.4033 18.5122 36.61C18.1522 36.8167 17.8655 37.1 17.6522 37.46C17.4455 37.82 17.3422 38.2333 17.3422 38.7ZM18.1522 38.7C18.1522 38.38 18.2189 38.0967 18.3522 37.85C18.4922 37.5967 18.6789 37.4 18.9122 37.26C19.1522 37.12 19.4222 37.05 19.7222 37.05C20.0222 37.05 20.2889 37.12 20.5222 37.26C20.7622 37.4 20.9489 37.5967 21.0822 37.85C21.2222 38.0967 21.2922 38.38 21.2922 38.7C21.2922 39.02 21.2222 39.3033 21.0822 39.55C20.9489 39.7967 20.7622 39.9933 20.5222 40.14C20.2889 40.28 20.0222 40.35 19.7222 40.35C19.4222 40.35 19.1522 40.28 18.9122 40.14C18.6789 39.9933 18.4922 39.7967 18.3522 39.55C18.2189 39.3033 18.1522 39.02 18.1522 38.7ZM23.6712 38.6V39.02H25.0012C25.1545 39.02 25.2845 39.0367 25.3912 39.07C25.5045 39.0967 25.5945 39.14 25.6612 39.2C25.7345 39.26 25.7878 39.3267 25.8212 39.4C25.8612 39.4733 25.8812 39.5567 25.8812 39.65C25.8812 39.83 25.8078 39.9833 25.6612 40.11C25.5212 40.2367 25.3012 40.3 25.0012 40.3H23.6712V41H25.2012C25.7278 41 26.1045 40.88 26.3312 40.64C26.5645 40.3933 26.6812 40.0967 26.6812 39.75C26.6812 39.45 26.6078 39.2167 26.4612 39.05C26.3145 38.8833 26.1145 38.7667 25.8612 38.7C25.6078 38.6333 25.3212 38.6 25.0012 38.6H23.6712ZM23.6712 38.8H24.9012C25.1878 38.8 25.4478 38.76 25.6812 38.68C25.9212 38.5933 26.1145 38.4667 26.2612 38.3C26.4078 38.1267 26.4812 37.91 26.4812 37.65C26.4812 37.35 26.4078 37.11 26.2612 36.93C26.1145 36.7433 25.9212 36.61 25.6812 36.53C25.4478 36.4433 25.1878 36.4 24.9012 36.4H23.6712V37.1H24.9012C25.1412 37.1 25.3312 37.1567 25.4712 37.27C25.6112 37.3767 25.6812 37.52 25.6812 37.7C25.6812 37.7867 25.6612 37.87 25.6212 37.95C25.5878 38.0233 25.5378 38.09 25.4712 38.15C25.4045 38.21 25.3212 38.2567 25.2212 38.29C25.1278 38.3167 25.0212 38.33 24.9012 38.33H23.6712V38.8ZM23.2012 36.4V41H24.0012V36.4H23.2012ZM31.7624 36.4H27.8124V39.4C27.8124 39.7267 27.7391 39.9533 27.5924 40.08C27.4524 40.2067 27.2824 40.27 27.0824 40.27V41C27.4291 41 27.7158 40.9433 27.9424 40.83C28.1691 40.71 28.3358 40.5333 28.4424 40.3C28.5558 40.06 28.6124 39.76 28.6124 39.4V37.15H30.9624V41H31.7624V36.4ZM33.4186 38.9H37.3486C37.3553 38.86 37.3586 38.82 37.3586 38.78C37.3586 38.74 37.3586 38.7 37.3586 38.66C37.3586 38.1733 37.2686 37.7567 37.0886 37.41C36.9086 37.0567 36.6553 36.7833 36.3286 36.59C36.0019 36.3967 35.6219 36.3 35.1886 36.3C34.7953 36.3 34.4386 36.38 34.1186 36.54C33.8053 36.7 33.5486 36.9233 33.3486 37.21C33.1486 37.4967 33.0153 37.83 32.9486 38.21C32.9353 38.29 32.9253 38.37 32.9186 38.45C32.9119 38.53 32.9086 38.6133 32.9086 38.7C32.9086 39.16 33.0019 39.5733 33.1886 39.94C33.3819 40.3 33.6419 40.5833 33.9686 40.79C34.3019 40.9967 34.6753 41.1 35.0886 41.1C35.4886 41.1 35.8219 41.0533 36.0886 40.96C36.3553 40.86 36.5819 40.7233 36.7686 40.55C36.9553 40.37 37.1253 40.1633 37.2786 39.93L36.6286 39.52C36.5286 39.6867 36.4086 39.8333 36.2686 39.96C36.1286 40.08 35.9686 40.1767 35.7886 40.25C35.6153 40.3167 35.4153 40.35 35.1886 40.35C34.8886 40.35 34.6286 40.2867 34.4086 40.16C34.1886 40.0333 34.0186 39.8467 33.8986 39.6C33.7786 39.3533 33.7186 39.0533 33.7186 38.7L33.7386 38.4C33.7386 38.1133 33.8019 37.8667 33.9286 37.66C34.0619 37.4467 34.2386 37.2833 34.4586 37.17C34.6786 37.0567 34.9219 37 35.1886 37C35.4553 37 35.6786 37.0533 35.8586 37.16C36.0453 37.26 36.1886 37.4033 36.2886 37.59C36.3953 37.77 36.4619 37.98 36.4886 38.22H33.4186V38.9ZM38.9251 38.95H42.3251V38.2H38.9251V38.95ZM41.8051 36.4V41H42.6051V36.4H41.8051ZM38.4551 36.4V41H39.2551V36.4H38.4551ZM44.5794 38.95H47.9794V38.2H44.5794V38.95ZM47.4594 36.4V41H48.2594V36.4H47.4594ZM44.1094 36.4V41H44.9094V36.4H44.1094ZM50.4237 41L52.1237 38.6H51.2437L49.5437 41H50.4237ZM53.3437 41V36.4H52.5437V41H53.3437ZM52.8737 38.46H51.4437C51.2503 38.46 51.087 38.4367 50.9537 38.39C50.827 38.3367 50.7303 38.26 50.6637 38.16C50.597 38.06 50.5637 37.9333 50.5637 37.78C50.5637 37.6267 50.597 37.5 50.6637 37.4C50.7303 37.3 50.827 37.2267 50.9537 37.18C51.087 37.1267 51.2503 37.1 51.4437 37.1H52.8737V36.4H51.4437C51.1303 36.4 50.8437 36.4467 50.5837 36.54C50.3303 36.6333 50.1303 36.78 49.9837 36.98C49.837 37.18 49.7637 37.4467 49.7637 37.78C49.7637 38.1067 49.837 38.3733 49.9837 38.58C50.1303 38.78 50.3303 38.9267 50.5837 39.02C50.8437 39.1133 51.1303 39.16 51.4437 39.16H52.8737V38.46Z" fill="white"/>
<rect x="12" width="28" height="32" rx="5" fill="white"/>
<path d="M40 7H39C35.134 7 32 3.86599 32 0V0" stroke="#36BAFE" stroke-width="2"/>
<line x1="19.8137" y1="16.4188" x2="24.8137" y2="23.4188" stroke="#36BAFE" stroke-width="2"/>
<line x1="33.8" y1="12.6" x2="24.8" y2="24.6" stroke="#36BAFE" stroke-width="2"/>
<rect x="12" width="28" height="32" rx="5" fill="white"/>
<path d="M40 7H39C35.134 7 32 3.86599 32 0V0" stroke="#36BAFE" stroke-width="2"/>
<line x1="19.8137" y1="16.4188" x2="24.8137" y2="23.4188" stroke="#36BAFE" stroke-width="2"/>
<line x1="33.8" y1="12.6" x2="24.8" y2="24.6" stroke="#36BAFE" stroke-width="2"/>
</svg>
