<svg width="132" height="200" viewBox="0 0 132 200" fill="none" xmlns="http://www.w3.org/2000/svg">
<path d="M-1.22011e-05 133.881C-9.00868e-06 97.3643 30.7453 34.7023 66 1.17014e-05C100.64 31.0062 132 97.3643 132 133.881C132 170.397 102.451 200 66 200C29.5492 200 -1.53934e-05 170.397 -1.22011e-05 133.881Z" fill="url(#paint0_linear_4_231)"/>
<path d="M27 161.32C27 139.958 44.9348 103.301 65.5 83C85.7065 101.139 104 139.958 104 161.32C104 182.683 86.763 200 65.5 200C44.237 200 27 182.683 27 161.32Z" fill="url(#paint1_linear_4_231)"/>
<circle cx="66" cy="176" r="17" fill="#2A2A2A"/>
<defs>
<linearGradient id="paint0_linear_4_231" x1="66" y1="200" x2="66" y2="9.48889e-06" gradientUnits="userSpaceOnUse">
<stop stop-color="#FD5C70"/>
<stop offset="1" stop-color="#FD5C70" stop-opacity="0"/>
</linearGradient>
<linearGradient id="paint1_linear_4_231" x1="65.5" y1="200" x2="65.5" y2="83" gradientUnits="userSpaceOnUse">
<stop stop-color="#FF9CB0"/>
<stop offset="1" stop-color="#FF9CB0" stop-opacity="0"/>
</linearGradient>
</defs>
</svg>
