<svg width="126" height="191" viewBox="0 0 126 191" fill="none" xmlns="http://www.w3.org/2000/svg">
<path d="M1.3147e-05 127.795C1.61942e-05 92.9387 29.3478 33.1249 63 9.75115e-06C96.0652 29.5968 126 92.9387 126 127.795C126 162.652 97.7939 190.909 63 190.909C28.2061 190.909 1.00997e-05 162.652 1.3147e-05 127.795Z" fill="url(#paint0_linear_130_103)"/>
<path d="M25.7727 153.988C25.7727 133.596 42.8923 98.6053 62.5227 79.2273C81.8108 96.5414 99.2727 133.596 99.2727 153.988C99.2727 174.379 82.8192 190.909 62.5227 190.909C42.2262 190.909 25.7727 174.379 25.7727 153.988Z" fill="url(#paint1_linear_130_103)"/>
<circle cx="63" cy="168" r="16.2273" fill="white"/>
<defs>
<linearGradient id="paint0_linear_130_103" x1="63" y1="190.909" x2="63" y2="9.75115e-06" gradientUnits="userSpaceOnUse">
<stop stop-color="#36BAFE"/>
<stop offset="1" stop-color="white" stop-opacity="0"/>
</linearGradient>
<linearGradient id="paint1_linear_130_103" x1="62.5227" y1="190.909" x2="62.5227" y2="79.2273" gradientUnits="userSpaceOnUse">
<stop stop-color="#66EAFF"/>
<stop offset="1" stop-color="white" stop-opacity="0"/>
</linearGradient>
</defs>
</svg>
