<svg width="289" height="188" viewBox="0 0 289 188" fill="none" xmlns="http://www.w3.org/2000/svg">
<path d="M99.7812 162C99.7812 174.402 90.4291 184 79.4375 184C68.4459 184 59.0938 174.402 59.0938 162C59.0938 149.598 68.4459 140 79.4375 140C90.4291 140 99.7812 149.598 99.7812 162Z" stroke="#6665B1" stroke-width="8"/>
<path d="M230.469 162C230.469 174.402 221.117 184 210.125 184C199.133 184 189.781 174.402 189.781 162C189.781 149.598 199.133 140 210.125 140C221.117 140 230.469 149.598 230.469 162Z" stroke="#6665B1" stroke-width="8"/>
<line x1="103.781" y1="158.667" x2="185.781" y2="158.667" stroke="#6665B1" stroke-width="8"/>
<rect x="4" y="4" width="123.969" height="121.333" stroke="#6665B1" stroke-width="8"/>
<line y1="-4" x2="52.9407" y2="-4" transform="matrix(0.999868 0.016258 -0.015013 0.999887 232.412 162.179)" stroke="#6665B1" stroke-width="8"/>
<line x1="284.594" y1="106.667" x2="284.594" y2="162.667" stroke="#6665B1" stroke-width="8"/>
<line y1="-4" x2="45.1905" y2="-4" transform="matrix(0.988323 0.15237 -0.14094 0.990018 242.337 106.232)" stroke="#6665B1" stroke-width="8"/>
<line y1="-4" x2="79.6842" y2="-4" transform="matrix(-0.31177 -0.950157 0.942278 -0.334833 248.984 104.481)" stroke="#6665B1" stroke-width="8"/>
<line x1="156.312" y1="26.6667" x2="224.219" y2="26.6667" stroke="#6665B1" stroke-width="8"/>
<line x1="160.312" y1="30.6667" x2="160.312" y2="129.333" stroke="#6665B1" stroke-width="8"/>
</svg>
