<svg width="227" height="141" viewBox="0 0 227 141" fill="none" xmlns="http://www.w3.org/2000/svg">
<path d="M77 121.5C77 130.159 70.187 137 62 137C53.813 137 47 130.159 47 121.5C47 112.841 53.813 106 62 106C70.187 106 77 112.841 77 121.5Z" stroke="#37A6EA" stroke-width="8"/>
<path d="M179 121.5C179 130.159 172.187 137 164 137C155.813 137 149 130.159 149 121.5C149 112.841 155.813 106 164 106C172.187 106 179 112.841 179 121.5Z" stroke="#37A6EA" stroke-width="8"/>
<line x1="81" y1="118" x2="145" y2="118" stroke="#37A6EA" stroke-width="8"/>
<rect x="4" y="4" width="95" height="89" stroke="#37A6EA" stroke-width="8"/>
<line x1="181.457" y1="117.635" x2="222.771" y2="118.28" stroke="#37A6EA" stroke-width="8"/>
<line x1="223" y1="80" x2="223" y2="122" stroke="#37A6EA" stroke-width="8"/>
<line x1="189.727" y1="75.7175" x2="224.586" y2="80.8818" stroke="#37A6EA" stroke-width="8"/>
<line x1="190.544" y1="79.6534" x2="171.154" y2="22.869" stroke="#37A6EA" stroke-width="8"/>
<line x1="122" y1="19" x2="175" y2="19" stroke="#37A6EA" stroke-width="8"/>
<line x1="126" y1="23" x2="126" y2="97" stroke="#37A6EA" stroke-width="8"/>
</svg>
