<svg width="177" height="194" viewBox="0 0 177 194" fill="none" xmlns="http://www.w3.org/2000/svg">
<path d="M131 50.5C131 76.7904 110.125 98 84.5 98C58.875 98 38 76.7904 38 50.5C38 24.2096 58.875 3 84.5 3C110.125 3 131 24.2096 131 50.5Z" stroke="#FD5C70" stroke-width="6"/>
<circle cx="83.5" cy="49.5" r="32.5" stroke="#FD5C70" stroke-width="6"/>
<path d="M82.4 67.72V50.2L83.2 48.92V33.44H85.52V49.44L84.76 51.12V67.72H82.4ZM91.12 41.24C90.1333 40.7333 89.0533 40.2933 87.88 39.92C86.7067 39.5467 85.56 39.36 84.44 39.36C82.8933 39.36 81.6533 39.72 80.72 40.44C79.8133 41.16 79.36 42.12 79.36 43.32C79.36 44.2267 79.6533 45 80.24 45.64C80.8267 46.2533 81.6 46.7867 82.56 47.24C83.52 47.6933 84.52 48.12 85.56 48.52C86.4667 48.8667 87.36 49.2533 88.24 49.68C89.12 50.1067 89.9067 50.64 90.6 51.28C91.32 51.92 91.88 52.7067 92.28 53.64C92.7067 54.5733 92.92 55.7333 92.92 57.12C92.92 58.64 92.5333 60.0267 91.76 61.28C91.0133 62.5333 89.9333 63.52 88.52 64.24C87.1067 64.96 85.4267 65.32 83.48 65.32C82.2 65.32 80.9733 65.1733 79.8 64.88C78.6533 64.5867 77.5867 64.2133 76.6 63.76C75.6133 63.28 74.7333 62.7867 73.96 62.28L75.68 59.24C76.32 59.6933 77.0533 60.1333 77.88 60.56C78.7067 60.96 79.5733 61.2933 80.48 61.56C81.3867 61.8 82.2667 61.92 83.12 61.92C84.0267 61.92 84.92 61.76 85.8 61.44C86.7067 61.0933 87.4533 60.5733 88.04 59.88C88.6267 59.1867 88.92 58.2667 88.92 57.12C88.92 56.1333 88.6533 55.32 88.12 54.68C87.6133 54.0133 86.9333 53.4533 86.08 53C85.2267 52.52 84.32 52.0933 83.36 51.72C82.4533 51.3733 81.5333 51 80.6 50.6C79.6667 50.1733 78.8 49.6667 78 49.08C77.2 48.4667 76.56 47.72 76.08 46.84C75.6 45.96 75.36 44.8933 75.36 43.64C75.36 42.12 75.72 40.8 76.44 39.68C77.1867 38.5333 78.2 37.64 79.48 37C80.76 36.3333 82.2267 35.9733 83.88 35.92C85.7467 35.92 87.3867 36.1467 88.8 36.6C90.24 37.0533 91.5067 37.6133 92.6 38.28L91.12 41.24Z" fill="#FD5C70"/>
<line x1="12" y1="72" x2="12" y2="87" stroke="#6665B1" stroke-width="6"/>
<line x1="34" y1="92" x2="34" y2="133" stroke="#6665B1" stroke-width="6"/>
<line x1="47" y1="136" x2="31" y2="136" stroke="#6665B1" stroke-width="6"/>
<line x1="12" y1="92" x2="12" y2="137" stroke="#6665B1" stroke-width="6"/>
<line y1="136" x2="15" y2="136" stroke="#6665B1" stroke-width="6"/>
<path d="M3 137L23.5 165L44 137" stroke="#6665B1" stroke-width="6"/>
<line x1="99" y1="115" x2="99" y2="156" stroke="#6665B1" stroke-width="6"/>
<line x1="112" y1="159" x2="96" y2="159" stroke="#6665B1" stroke-width="6"/>
<line x1="77" y1="115" x2="77" y2="160" stroke="#6665B1" stroke-width="6"/>
<line x1="65" y1="159" x2="80" y2="159" stroke="#6665B1" stroke-width="6"/>
<path d="M68 160L88.5 188L109 160" stroke="#6665B1" stroke-width="6"/>
<line x1="164" y1="72" x2="164" y2="87" stroke="#6665B1" stroke-width="6"/>
<line x1="164" y1="92" x2="164" y2="133" stroke="#6665B1" stroke-width="6"/>
<line x1="177" y1="136" x2="161" y2="136" stroke="#6665B1" stroke-width="6"/>
<line x1="142" y1="92" x2="142" y2="137" stroke="#6665B1" stroke-width="6"/>
<line x1="130" y1="136" x2="145" y2="136" stroke="#6665B1" stroke-width="6"/>
<path d="M133 137L153.5 165L174 137" stroke="#6665B1" stroke-width="6"/>
</svg>
