<svg width="177" height="193" viewBox="0 0 177 193" fill="none" xmlns="http://www.w3.org/2000/svg">
<path d="M131 50.2314C131 76.3582 110.14 97.4628 84.5 97.4628C58.8601 97.4628 38 76.3582 38 50.2314C38 24.1046 58.8601 3 84.5 3C110.14 3 131 24.1046 131 50.2314Z" stroke="#37A6EA" stroke-width="6"/>
<path d="M116 49.2367C116 67.0666 101.464 81.5479 83.5 81.5479C65.5356 81.5479 51 67.0666 51 49.2367C51 31.4068 65.5356 16.9255 83.5 16.9255C101.464 16.9255 116 31.4068 116 49.2367Z" stroke="#37A6EA" stroke-width="6"/>
<path d="M82.4 67.5338V50.0138L83.2 48.7338V33.2538H85.52V49.2538L84.76 50.9338V67.5338H82.4ZM91.12 41.0538C90.1333 40.5472 89.0533 40.1072 87.88 39.7338C86.7067 39.3605 85.56 39.1738 84.44 39.1738C82.8933 39.1738 81.6533 39.5338 80.72 40.2538C79.8133 40.9738 79.36 41.9338 79.36 43.1338C79.36 44.0405 79.6533 44.8138 80.24 45.4538C80.8267 46.0672 81.6 46.6005 82.56 47.0538C83.52 47.5072 84.52 47.9338 85.56 48.3338C86.4667 48.6805 87.36 49.0672 88.24 49.4938C89.12 49.9205 89.9067 50.4538 90.6 51.0938C91.32 51.7338 91.88 52.5205 92.28 53.4538C92.7067 54.3872 92.92 55.5472 92.92 56.9338C92.92 58.4538 92.5333 59.8405 91.76 61.0938C91.0133 62.3472 89.9333 63.3338 88.52 64.0538C87.1067 64.7738 85.4267 65.1338 83.48 65.1338C82.2 65.1338 80.9733 64.9872 79.8 64.6938C78.6533 64.4005 77.5867 64.0272 76.6 63.5738C75.6133 63.0938 74.7333 62.6005 73.96 62.0938L75.68 59.0538C76.32 59.5072 77.0533 59.9472 77.88 60.3738C78.7067 60.7738 79.5733 61.1072 80.48 61.3738C81.3867 61.6138 82.2667 61.7338 83.12 61.7338C84.0267 61.7338 84.92 61.5738 85.8 61.2538C86.7067 60.9072 87.4533 60.3872 88.04 59.6938C88.6267 59.0005 88.92 58.0805 88.92 56.9338C88.92 55.9472 88.6533 55.1338 88.12 54.4938C87.6133 53.8272 86.9333 53.2672 86.08 52.8138C85.2267 52.3338 84.32 51.9072 83.36 51.5338C82.4533 51.1872 81.5333 50.8138 80.6 50.4138C79.6667 49.9872 78.8 49.4805 78 48.8938C77.2 48.2805 76.56 47.5338 76.08 46.6538C75.6 45.7738 75.36 44.7072 75.36 43.4538C75.36 41.9338 75.72 40.6138 76.44 39.4938C77.1867 38.3472 78.2 37.4538 79.48 36.8138C80.76 36.1472 82.2267 35.7872 83.88 35.7338C85.7467 35.7338 87.3867 35.9605 88.8 36.4138C90.24 36.8672 91.5067 37.4272 92.6 38.0938L91.12 41.0538Z" fill="#37A6EA"/>
<line x1="12" y1="71.617" x2="12" y2="86.5372" stroke="#37A6EA" stroke-width="6"/>
<line x1="34" y1="91.5106" x2="34" y2="132.293" stroke="#37A6EA" stroke-width="6"/>
<line x1="47" y1="135.293" x2="31" y2="135.293" stroke="#37A6EA" stroke-width="6"/>
<line x1="12" y1="91.5106" x2="12" y2="136.271" stroke="#37A6EA" stroke-width="6"/>
<line y1="135.261" x2="15" y2="135.261" stroke="#37A6EA" stroke-width="6"/>
<path d="M3 136.271L23.5 164.122L44 136.271" stroke="#37A6EA" stroke-width="6"/>
<line x1="99" y1="114.388" x2="99" y2="155.17" stroke="#37A6EA" stroke-width="6"/>
<line x1="112" y1="158.17" x2="96" y2="158.17" stroke="#37A6EA" stroke-width="6"/>
<line x1="77" y1="114.388" x2="77" y2="159.149" stroke="#37A6EA" stroke-width="6"/>
<line x1="65" y1="158.138" x2="80" y2="158.138" stroke="#37A6EA" stroke-width="6"/>
<path d="M68 159.149L88.5 187L109 159.149" stroke="#37A6EA" stroke-width="6"/>
<line x1="164" y1="71.617" x2="164" y2="86.5372" stroke="#37A6EA" stroke-width="6"/>
<line x1="164" y1="91.5106" x2="164" y2="132.293" stroke="#37A6EA" stroke-width="6"/>
<line x1="177" y1="135.293" x2="161" y2="135.293" stroke="#37A6EA" stroke-width="6"/>
<line x1="142" y1="91.5106" x2="142" y2="136.271" stroke="#37A6EA" stroke-width="6"/>
<line x1="130" y1="135.261" x2="145" y2="135.261" stroke="#37A6EA" stroke-width="6"/>
<path d="M133 136.271L153.5 164.122L174 136.271" stroke="#37A6EA" stroke-width="6"/>
</svg>
