<svg width="613" height="380" viewBox="0 0 613 380" fill="none" xmlns="http://www.w3.org/2000/svg">
<path d="M409.231 245.798C412.224 248.263 415.536 250.281 418.977 251.738C422.418 253.194 425.921 254.06 429.287 254.286C432.652 254.512 435.814 254.094 438.592 253.055C441.369 252.016 443.708 250.378 445.475 248.232C447.242 246.087 448.402 243.478 448.889 240.552C449.376 237.627 449.18 234.444 448.313 231.184C447.446 227.924 445.924 224.652 443.836 221.554C441.747 218.455 439.131 215.592 436.138 213.127" stroke="#FD5C70" stroke-width="12"/>
<path d="M119.405 23.7482L178.876 72.8352C183.469 76.627 184.586 83.2147 181.499 88.309L109.51 207.104C105.926 213.018 98.0975 214.687 92.413 210.749L71.6337 196.352C67.6426 193.587 65.7111 188.689 66.7406 183.944L100.039 30.4586C101.945 21.6753 112.474 18.0269 119.405 23.7482Z" stroke="#FD5C70" stroke-width="12"/>
<path d="M491.471 25.8085L431.459 76.8933C426.911 80.7654 425.903 87.3935 429.095 92.4429L502.137 207.992C505.829 213.832 513.677 215.357 519.287 211.323L540.656 195.956C544.572 193.14 546.421 188.255 545.352 183.552L510.95 32.2849C508.951 23.4944 498.335 19.9649 491.471 25.8085Z" stroke="#FD5C70" stroke-width="12"/>
<path d="M177.38 98.4976L276.956 90.8123L295.383 97.8707" stroke="#FD5C70" stroke-width="12"/>
<line x1="111.718" y1="205.174" x2="134.668" y2="221.247" stroke="#FD5C70" stroke-width="12"/>
<line x1="494.228" y1="190.879" x2="447.102" y2="230.73" stroke="#FD5C70" stroke-width="12"/>
<line x1="333.34" y1="128.16" x2="455.023" y2="228.545" stroke="#FD5C70" stroke-width="12"/>
<rect x="170.732" y="189.769" width="41.5362" height="71.3462" rx="20.7681" transform="rotate(46.6674 170.732 189.769)" stroke="#FD5C70" stroke-width="12"/>
<path d="M290.711 265.462L361.081 314.497C370.393 320.986 383.202 318.697 389.691 309.385V309.385C396.18 300.073 393.891 287.264 384.579 280.775L314.209 231.74" stroke="#FD5C70" stroke-width="12"/>
<path d="M321.369 236.989L393.14 287C402.892 293.796 416.306 291.399 423.102 281.647V281.647C429.897 271.894 427.5 258.48 417.748 251.685L390.692 232.831L333.342 189.801" stroke="#FD5C70" stroke-width="12"/>
<path d="M288.447 314.71L322.028 337.233C339.924 349.236 362.555 330.838 354.459 310.868V310.868" stroke="#FD5C70" stroke-width="12"/>
<rect x="213.535" y="208.18" width="43.2748" height="91.2905" rx="21.6374" transform="rotate(46.6674 213.535 208.18)" stroke="#FD5C70" stroke-width="12"/>
<rect x="245.755" y="239.219" width="39.0704" height="85.6856" rx="19.5352" transform="rotate(46.6674 245.755 239.219)" stroke="#FD5C70" stroke-width="12"/>
<rect x="275.338" y="272.62" width="37.2205" height="65.8393" rx="18.6103" transform="rotate(46.6674 275.338 272.62)" stroke="#FD5C70" stroke-width="12"/>
<path d="M318.223 227.253C317.476 226.732 316.272 225.791 315.407 225.561C314.542 225.331 313.658 225.261 312.807 225.357C311.956 225.452 311.153 225.71 310.446 226.116C309.738 226.522 309.139 227.068 308.682 227.724C308.226 228.379 307.921 229.13 307.785 229.935C307.649 230.74 307.685 231.582 307.891 232.413C308.097 233.245 308.468 234.049 308.984 234.781C309.499 235.513 310.15 236.158 310.897 236.678L314.373 231.688L318.223 227.253Z" fill="#FD5C70"/>
<path d="M295.031 261.164C294.284 260.643 293.08 259.702 292.214 259.473C291.347 259.245 290.462 259.178 289.608 259.277C288.754 259.376 287.949 259.638 287.238 260.049C286.527 260.46 285.924 261.011 285.464 261.671C285.004 262.332 284.696 263.088 284.557 263.897C284.418 264.706 284.451 265.553 284.654 266.388C284.857 267.223 285.227 268.03 285.741 268.764C286.256 269.498 286.905 270.143 287.652 270.664L291.155 265.636L295.031 261.164Z" fill="#FD5C70"/>
<path d="M337.265 185.255C336.517 184.735 335.314 183.793 334.448 183.564C333.582 183.335 332.697 183.268 331.844 183.365C330.991 183.463 330.187 183.724 329.477 184.133C328.767 184.542 328.165 185.092 327.706 185.751C327.248 186.409 326.94 187.164 326.802 187.972C326.664 188.78 326.698 189.625 326.902 190.459C327.106 191.292 327.476 192.099 327.991 192.832C328.506 193.565 329.156 194.21 329.903 194.731L333.397 189.715L337.265 185.255Z" fill="#FD5C70"/>
<path d="M243.853 118.963C245.454 126.073 250.08 132.325 257.114 136.882C264.148 141.44 273.255 144.087 283.22 144.47C293.184 144.854 303.532 142.955 312.881 139.028C322.23 135.1 330.135 129.331 335.541 122.491" stroke="#FD5C70" stroke-width="12"/>
<path d="M243.899 119.228C243.732 118.484 249.125 114.888 261.135 111.542C273.144 108.197 301.62 91.0501 321.533 86.2932C341.447 81.5363 371.487 108.914 392.216 104.438C412.946 99.9632 416.673 96.8303 430.842 94.2293" stroke="#FD5C70" stroke-width="12"/>
</svg>
