<svg width="140" height="218" viewBox="0 0 140 218" fill="none" xmlns="http://www.w3.org/2000/svg">
<rect x="85.5555" width="7.77778" height="103.704" rx="3.88889" fill="#37A6EA"/>
<rect x="137.407" y="141.296" width="7.77778" height="77.7778" transform="rotate(90 137.407 141.296)" fill="#37A6EA"/>
<path d="M120.556 121.852V113.704C120.556 108.181 116.078 103.704 110.556 103.704H86.4815C80.9587 103.704 76.4815 108.181 76.4815 113.704V121.852" stroke="#37A6EA" stroke-width="5"/>
<path d="M136.111 149.074V129.444C136.111 126.683 133.873 124.444 131.111 124.444H67.2222C64.4608 124.444 62.2222 126.683 62.2222 129.444V149.074" stroke="#37A6EA" stroke-width="5"/>
<rect x="105" width="7.77778" height="35" rx="3.88889" fill="#37A6EA"/>
<rect x="64.8148" y="49.2593" width="7.77778" height="49.2593" rx="3.88889" transform="rotate(90 64.8148 49.2593)" fill="#37A6EA"/>
<rect x="64.8148" y="67.4074" width="7.77778" height="64.8148" rx="3.88889" transform="rotate(90 64.8148 67.4074)" fill="#37A6EA"/>
<rect x="66.1111" y="103.704" width="7.77778" height="57.037" rx="3.88889" transform="rotate(90 66.1111 103.704)" fill="#37A6EA"/>
<rect x="64.8148" y="85.5555" width="7.77778" height="42.7778" rx="3.88889" transform="rotate(90 64.8148 85.5555)" fill="#37A6EA"/>
<rect x="105" y="62.2222" width="7.77778" height="41.4815" rx="3.88889" fill="#37A6EA"/>
<path d="M101.315 175.437C102.194 173.278 104.783 172.401 106.793 173.581C108.45 174.553 109.128 176.604 108.378 178.372L101.649 194.241C100.862 196.097 99.8381 197.844 98.6039 199.439L87.8616 213.319C86.6723 214.856 84.5264 215.27 82.8506 214.286C80.8457 213.109 80.3268 210.441 81.7444 208.599L93.2138 193.692C94.1534 192.471 94.9242 191.129 95.5053 189.702L101.315 175.437Z" fill="#37A6EA"/>
<path d="M70.2036 175.204C71.0827 173.046 73.6719 172.169 75.682 173.349C77.3387 174.321 78.017 176.372 77.267 178.14L70.5377 194.008C69.7504 195.865 68.727 197.612 67.4927 199.207L56.7505 213.087C55.5611 214.624 53.4153 215.038 51.7394 214.054C49.7345 212.877 49.2157 210.209 50.6333 208.367L62.1026 193.46C63.0422 192.239 63.813 190.896 64.3942 189.469L70.2036 175.204Z" fill="#37A6EA"/>
<rect x="105" y="46.6667" width="7.77778" height="7.77778" rx="3.88889" fill="#37A6EA"/>
<path d="M107.857 213.833H14.5507L46.1364 182.248L46.4153 181.969L46.5674 181.605L60.9611 147.185H137.438L127.781 185.815L107.857 213.833Z" stroke="#37A6EA" stroke-width="4"/>
</svg>
